<svg width="0" height="0" class="hidden">
  <symbol xmlns="http://www.w3.org/2000/svg" viewBox="0 0 32 32" id="log-out">
  <linearGradient id="a" gradientUnits="userSpaceOnUse" x1="-59.013" y1="587.625" x2="4.675" y2="587.625" gradientTransform="matrix(8 0 0 -8 455 4941)">
      <stop offset="0" stop-color="#00a2cc"></stop>
      <stop offset="1" stop-color="#2b32b2"></stop>
    </linearGradient>
    <path d="M30 31H12a1 1 0 01-1-1v-1a1 1 0 112 0h16V3H13a1 1 0 01-2 0V2a1 1 0 011-1h18a1 1 0 011 1v28a1 1 0 01-1 1zm-17.293-4.293l3-3a.999.999 0 000-1.414L12.414 19H24a1 1 0 001-1v-4a1 1 0 00-1-1H12.414l3.293-3.293a.999.999 0 000-1.414l-3-3a.999.999 0 00-1.414 0l-10 10a.999.999 0 000 1.414l10 10a.997.997 0 001.414 0z"></path>
  </symbol>
  <symbol xmlns="http://www.w3.org/2000/svg" viewBox="0 1 511 511.999" id="price-tag">
    <linearGradient id="a" gradientUnits="userSpaceOnUse" x1=".5" x2="512.213" y1="256" y2="256">
     <stop  offset="0" style="stop-color:#00A2CC"/>
	  <stop  offset="1" style="stop-color:#2B32B2"/>
    </linearGradient>
    <path d="M464.36 0c-.555 0-1.106.023-1.66.07-3.27.27-76.38 6.98-103.852 60.293l-99.211-10.082c-24.043-2.441-47.606 5.961-64.64 23.024L23.827 243.906c-31.113 31.168-31.101 81.864.024 113.016l131.285 131.394C170.907 504.098 191.594 512 212.21 512c20.332-.004 40.598-7.688 56.008-23.082 7.808-7.805 7.816-20.461.011-28.27-7.8-7.812-20.46-7.816-28.27-.015-15.44 15.43-40.808 15.168-56.538-.578L52.132 328.66c-15.562-15.574-15.566-40.922-.046-56.469l171.172-170.605c8.535-8.547 20.32-12.75 32.336-11.531l152.11 15.46 1.98 19.438c-27.707 10.328-54.075 11.977-54.676 12.012-11.012.594-19.465 9.996-18.887 21.012.563 10.668 9.387 18.941 19.945 18.941.356 0 .711-.008 1.067-.027 1.281-.067 26.863-1.532 56.71-11.082l9.305 91.378c1.223 11.993-2.957 23.758-11.472 32.293l-97.524 96.094c-7.863 7.746-7.957 20.406-.21 28.27 7.75 7.863 20.406 7.957 28.269.207l97.582-96.149.098-.097c17.086-17.07 25.484-40.64 23.035-64.668l-10.613-104.188c13.445-7.87 24.78-17.144 33.843-27.715 17.305-20.199 26.074-44.62 26.055-72.582v-.797C512.21 21.47 490.746 0 464.359 0zm7.87 48.664c.016 22.344-8.074 40.473-24.55 54.809l-1.856-18.223c-.96-9.438-8.426-16.902-17.867-17.863L404.77 65.03c20.46-19.531 54.27-24.308 60.308-25.02 4.004.368 7.152 3.747 7.152 7.844zM310.22 292.883c-7.805 7.808-20.461 7.808-28.27 0-7.808-7.809-7.808-20.465 0-28.27 2.133-2.133 2.52-4.605 2.469-6.304-.078-2.73-1.27-5.383-3.352-7.461l-12.246-12.25c-3.175-3.176-7.261-4.95-11.504-4.996-2.976-.028-7.222.742-11.086 4.609l-3.156 3.156c-6.515 6.512-6.754 17.274-.527 23.504l12.953 12.95c10.613 10.613 16.54 24.616 16.695 39.437.153 15.027-5.64 29.187-16.324 39.867l-1.473 1.473c-10.804 10.808-24.722 16.195-38.73 16.195-11.898.004-23.856-3.898-34.04-11.652l-8.37 8.078a19.926 19.926 0 01-13.88 5.601 19.926 19.926 0 01-14.386-6.11c-7.668-7.944-7.437-20.6.508-28.265l7.492-7.23c-8.43-9.133-13.191-20.758-13.453-32.973-.281-13.312 4.793-25.879 14.293-35.379 7.809-7.804 20.465-7.804 28.273 0 7.805 7.809 7.805 20.465 0 28.274-1.773 1.77-2.644 3.875-2.593 6.254.054 2.554 1.195 5.074 3.218 7.093l21.055 21.055c6.594 6.594 16.2 6.93 22.344.79l1.473-1.477c3.02-3.016 4.656-6.985 4.613-11.18-.047-4.297-1.817-8.41-4.985-11.578l-12.957-12.953c-21.921-21.926-21.683-57.832.528-80.047l3.16-3.156c10.535-10.536 24.426-16.317 39.172-16.317h.617a55.835 55.835 0 0128.61 8.242l8.585-8.867c7.684-7.934 20.336-8.137 28.27-.457 7.93 7.68 8.133 20.336.453 28.27l-8.477 8.754c5.684 8.105 8.899 17.632 9.192 27.574.394 13.523-4.633 26.218-14.164 35.746zm0 0" fill="url(#a)"></path>
  </symbol>
  <symbol xmlns="http://www.w3.org/2000/svg" viewBox="0 0 480 480" id="responsive">
    <linearGradient id="a" gradientUnits="userSpaceOnUse" x1="-59.013" y1="587.625" x2="4.675" y2="587.625" gradientTransform="matrix(8 0 0 -8 455 4941)">
      <stop offset="0" stop-color="#00a2cc"></stop>
      <stop offset="1" stop-color="#2b32b2"></stop>
    </linearGradient>
    <path d="M456 240h-8V72c-.026-22.08-17.92-39.974-40-40H72c-22.08.026-39.974 17.92-40 40v120h-8c-13.255 0-24 10.745-24 24v208c0 13.255 10.745 24 24 24h304a8 8 0 008-8c-.026-22.08-17.92-39.974-40-40h-24v-48h96v72c0 13.255 10.745 24 24 24h64c13.255 0 24-10.745 24-24V264c0-13.255-10.745-24-24-24zM176 424a8 8 0 01-8 8H24a8 8 0 01-8-8v-8h160v8zm0-24H16V216a8 8 0 018-8h144a8 8 0 018 8v184zm120 16a24.047 24.047 0 0122.632 16H190.528a23.75 23.75 0 001.472-8v-8h104zm-104-16v-48h16v48h-16zm32 0v-48h32v48h-32zm144-64H192v-48h176v48zm0-72v8H192v-56a23.713 23.713 0 00-2.736-10.888c.12-.112.28-.144.392-.264l79.2-79.2a8 8 0 00-11.312-11.312l-79.2 79.2c-.192.2-.272.456-.44.664A23.699 23.699 0 00168 192H48V72c0-13.255 10.745-24 24-24h336c13.255 0 24 10.745 24 24v168h-40c-13.255 0-24 10.745-24 24zm96 160a8 8 0 01-8 8h-64a8 8 0 01-8-8v-8h80v8zm0-24h-80V264a8 8 0 018-8h64a8 8 0 018 8v136z" fill="url(#a)"></path>
    <linearGradient id="b" gradientUnits="userSpaceOnUse" x1="-59.013" y1="578.619" x2="4.675" y2="578.619" gradientTransform="matrix(8 0 0 -8 455 4941)">
      <stop offset="0" stop-color="#00a2cc"></stop>
      <stop offset="1" stop-color="#2b32b2"></stop>
    </linearGradient>
    <path d="M95.592 289.376a8 8 0 00-11.312 0l-33.936 33.936a8 8 0 00-.196 11.312 8 8 0 0011.508 0l33.936-33.936a8 8 0 000-11.312z" fill="url(#b)"></path>
    <linearGradient id="c" gradientUnits="userSpaceOnUse" x1="-59.013" y1="578.613" x2="4.675" y2="578.613" gradientTransform="matrix(8 0 0 -8 455 4941)">
      <stop offset="0" stop-color="#00a2cc"></stop>
      <stop offset="1" stop-color="#2b32b2"></stop>
    </linearGradient>
    <path d="M132.28 289.376l-33.936 33.936a8 8 0 00-.196 11.312 8 8 0 0011.508 0l33.936-33.936a8 8 0 00-11.312-11.312z" fill="url(#c)"></path>
    <linearGradient id="d" gradientUnits="userSpaceOnUse" x1="-59.013" y1="597.663" x2="4.675" y2="597.663" gradientTransform="matrix(8 0 0 -8 455 4941)">
      <stop offset="0" stop-color="#00a2cc"></stop>
      <stop offset="1" stop-color="#2b32b2"></stop>
    </linearGradient>
    <path d="M306.344 114.344l-79.2 79.2a8 8 0 1011.312 11.312l79.2-79.2a8 8 0 00-11.312-11.312z" fill="url(#d)"></path>
    <linearGradient id="e" gradientUnits="userSpaceOnUse" x1="-59.013" y1="576.613" x2="4.675" y2="576.613" gradientTransform="matrix(8 0 0 -8 455 4941)">
      <stop offset="0" stop-color="#00a2cc"></stop>
      <stop offset="1" stop-color="#2b32b2"></stop>
    </linearGradient>
    <path d="M429.656 311.032l-22.624 22.624a8 8 0 00-.196 11.312 8 8 0 0011.508 0l22.624-22.624a8 8 0 00-.196-11.312 8 8 0 00-11.116 0z" fill="url(#e)"></path>
    <linearGradient id="f" gradientUnits="userSpaceOnUse" x1="-59.013" y1="578.625" x2="4.675" y2="578.625" gradientTransform="matrix(8 0 0 -8 455 4941)">
      <stop offset="0" stop-color="#00a2cc"></stop>
      <stop offset="1" stop-color="#2b32b2"></stop>
    </linearGradient>
    <path d="M240.16 320a8 8 0 000-16h-.08a8 8 0 00.08 16z" fill="url(#f)"></path>
    <linearGradient id="g" gradientUnits="userSpaceOnUse" x1="-59.013" y1="608.625" x2="4.675" y2="608.625" gradientTransform="matrix(8 0 0 -8 455 4941)">
      <stop offset="0" stop-color="#00a2cc"></stop>
      <stop offset="1" stop-color="#2b32b2"></stop>
    </linearGradient>
    <path d="M256 64h-32a8 8 0 000 16h32a8 8 0 000-16z" fill="url(#g)"></path>
  </symbol>
</svg>